<?xml version="1.0" encoding="UTF-8" standalone="no"?>
<!-- Created with Inkscape (http://www.inkscape.org/) -->

<svg
   xmlns:dc="http://purl.org/dc/elements/1.1/"
   xmlns:cc="http://creativecommons.org/ns#"
   xmlns:rdf="http://www.w3.org/1999/02/22-rdf-syntax-ns#"
   xmlns:svg="http://www.w3.org/2000/svg"
   xmlns="http://www.w3.org/2000/svg"
   xmlns:xlink="http://www.w3.org/1999/xlink"
   xmlns:sodipodi="http://sodipodi.sourceforge.net/DTD/sodipodi-0.dtd"
   xmlns:inkscape="http://www.inkscape.org/namespaces/inkscape"
   width="400"
   height="600"
   id="svg8123"
   sodipodi:version="0.32"
   inkscape:version="0.47pre0 r21549"
   version="1.0"
   sodipodi:docname="template.svg"
   inkscape:output_extension="org.inkscape.output.svg.inkscape"
   inkscape:export-filename="/scratchbox/users/danielb/home/danielb/Repository/themes/melody/applications/mediaplayer/template.png"
   inkscape:export-xdpi="90"
   inkscape:export-ydpi="90">
  <defs
     id="defs8125">
    <inkscape:perspective
       sodipodi:type="inkscape:persp3d"
       inkscape:vp_x="0 : 300 : 1"
       inkscape:vp_y="0 : 1000 : 0"
       inkscape:vp_z="400 : 300 : 1"
       inkscape:persp3d-origin="200 : 200 : 1"
       id="perspective68" />
    <linearGradient
       id="SVGID_1_"
       gradientUnits="userSpaceOnUse"
       x1="-188.5"
       y1="-292.2529"
       x2="-188.5"
       y2="-128.2529">
      <stop
         offset="0"
         style="stop-color:#90ff24;stop-opacity:1;"
         id="stop115" />
      <stop
         offset="1"
         style="stop-color:#c8ff42;stop-opacity:1;"
         id="stop117" />
    </linearGradient>
    <linearGradient
       inkscape:collect="always"
       xlink:href="#SVGID_1_"
       id="linearGradient3783"
       gradientUnits="userSpaceOnUse"
       x1="-188.5"
       y1="-292.2529"
       x2="-188.5"
       y2="-128.2529"
       gradientTransform="translate(270.5,291.5)" />
  </defs>
  <sodipodi:namedview
     id="base"
     pagecolor="#4a3b3b"
     bordercolor="#666666"
     borderopacity="1.0"
     gridtolerance="10000"
     guidetolerance="10"
     objecttolerance="10"
     inkscape:pageopacity="0"
     inkscape:pageshadow="2"
     inkscape:zoom="1"
     inkscape:cx="34.5"
     inkscape:cy="382.89764"
     inkscape:document-units="px"
     inkscape:current-layer="layer1"
     showgrid="false"
     inkscape:window-width="1400"
     inkscape:window-height="821"
     inkscape:window-x="0"
     inkscape:window-y="25"
     inkscape:snap-bbox="true"
     inkscape:snap-nodes="false"
     inkscape:window-maximized="0">
    <inkscape:grid
       type="xygrid"
       id="grid8241"
       empspacing="5"
       visible="true"
       enabled="true" />
  </sodipodi:namedview>
  <metadata
     id="metadata8128">
    <rdf:RDF>
      <cc:Work
         rdf:about="">
        <dc:format>image/svg+xml</dc:format>
        <dc:type
           rdf:resource="http://purl.org/dc/dcmitype/StillImage" />
        <dc:title />
      </cc:Work>
    </rdf:RDF>
  </metadata>
  <g
     inkscape:groupmode="layer"
     id="layer3"
     inkscape:label="darkness"
     style="display:none"
     sodipodi:insensitive="true">
    <rect
       style="color:#000000;fill:#121415;fill-opacity:1;fill-rule:nonzero;stroke:#2e3436;stroke-width:0;stroke-linecap:square;stroke-linejoin:miter;stroke-miterlimit:3.4000001;stroke-opacity:1;stroke-dasharray:none;stroke-dashoffset:0;marker:none;visibility:visible;display:inline;overflow:visible;enable-background:accumulate"
       id="rect3604-2"
       width="1220"
       height="1031.0001"
       x="-10"
       y="-15.000003"
       rx="0"
       ry="0" />
  </g>
  <g
     inkscape:label="Layer 1"
     inkscape:groupmode="layer"
     id="layer1"
     style="display:inline">
    <path
       id="path21"
       d="m 185.23339,25.121985 c 0.2286,0.075 0.5826,0.2394 0.78721,0.3648 0.2046,0.1248 0.64679,0.5706 0.89819,0.8712 l 2.106,2.5128 c 0.2514,0.3 0.6636,0.3 0.915,0 l 1.9932,-2.3772 c 0.2514,-0.3 0.2514,-0.792 0,-1.092 l -1.5492,-1.848 c -0.2514,-0.3 -0.6972,-0.7596 -0.99,-1.0194 0,0 -0.9564,-0.8508 -1.8306,-1.2636 -0.8796,-0.4002 -2.1612,-0.5856 -2.1612,-0.5856 -0.3876,-0.0564 -1.0254,-0.102 -1.4178,-0.102 h -3.8694 c -0.3918,0 -0.7128,0.3204 -0.7128,0.7128 v 2.9862 c 0,0.3918 0.3204,0.7128 0.7128,0.7128 l 3.8694,-6e-4 c 0.393,-0.0012 1.0206,0.0522 1.2492,0.1278 z m 14.9118,0.3648 c 0.2046,-0.1254 0.5592,-0.2898 0.7878,-0.3648 0.2286,-0.075 0.8562,-0.129 1.2486,-0.129 h 2.373 c 0.3918,0 0.7128,0.3204 0.7128,0.7128 v 1.0998 c 0,0.3918 0.279,0.5544 0.6198,0.3612 l 7.0974,-4.0272 c 0.3408,-0.1932 0.3408,-0.51 0,-0.7032 l -7.0974,-4.0248 c -0.3408,-0.1932 -0.6198,-0.0312 -0.6198,0.3612 v 1.098 c 0,0.3918 -0.3204,0.7128 -0.7128,0.7128 h -2.373 c -0.3918,0 -1.0296,0.0462 -1.4178,0.102 0,0 -1.2804,0.1854 -2.1624,0.5856 -0.873,0.4128 -1.8294,1.2636 -1.8294,1.2636 -0.2928,0.2604 -0.738,0.7194 -0.99,1.0194 l -8.8632,10.5738 c -0.2514,0.3 -0.552,0.6312 -0.6678,0.7356 -0.1152,0.1038 -0.789,0.4254 -1.0176,0.501 -0.228,0.075 -0.8562,0.1278 -1.2486,0.1278 h -3.8694 c -0.3918,0 -0.7128,0.3204 -0.7128,0.7128 v 2.9862 c 0,0.3918 0.3204,0.7128 0.7128,0.7128 h 3.8694 c 0.3918,0 1.0296,-0.0462 1.4178,-0.102 0,0 1.2816,-0.186 2.1612,-0.5856 0.8742,-0.4134 1.8306,-1.2636 1.8306,-1.2636 0.2928,-0.2604 0.738,-0.7194 0.99,-1.0194 l 8.8626,-10.5738 c 0.2514,-0.3024 0.6936,-0.7476 0.8982,-0.873 z m 5.1216,9.2922 c 0,0.3918 -0.32039,0.7128 -0.71279,0.7128 h -2.373 c -0.3918,0 -0.83941,-0.0174 -0.99481,-0.039 -0.1554,-0.0216 -0.837,-0.3288 -1.04099,-0.4542 -0.20401,-0.1254 -0.64741,-0.5712 -0.89881,-0.8712 l -2.10659,-2.5128 c -0.25141,-0.3 -0.6636,-0.3 -0.91501,0 l -1.992,2.3766 c -0.2514,0.3 -0.2514,0.792 0,1.092 l 1.54921,1.848 c 0.2514,0.3 0.69719,0.759 0.99,1.0194 0,0 0.95639,0.8502 1.82939,1.2636 0.88141,0.3996 2.16241,0.585 2.16241,0.585 0.38759,0.0558 1.0254,0.102 1.4178,0.102 h 2.373 c 0.3918,0 0.7128,0.3204 0.7128,0.7128 v 1.0986 c 0,0.3918 0.279,0.5544 0.6198,0.3612 l 7.0974,-4.0254 c 0.3408,-0.1932 0.3408,-0.51 0,-0.7032 l -7.0974,-4.0266 c -0.3408,-0.1932 -0.6198,-0.0312 -0.6198,0.3612 v 1.0992 z"
       style="fill:#88fc17;fill-opacity:1" />
    <path
       id="path26"
       d="m 249.23319,25.121785 c 0.2286,0.075 0.5826,0.2394 0.7872,0.3648 0.2046,0.1248 0.6468,0.5706 0.8982,0.8712 l 2.106,2.5128 c 0.2514,0.3 0.6636,0.3 0.915,0 l 1.9932,-2.3772 c 0.2514,-0.3 0.2514,-0.792 0,-1.092 l -1.5492,-1.848 c -0.2514,-0.3 -0.6972,-0.7596 -0.99,-1.0194 0,0 -0.9564,-0.8508 -1.8306,-1.2636 -0.8796,-0.4002 -2.1612,-0.5856 -2.1612,-0.5856 -0.3876,-0.0564 -1.0254,-0.102 -1.4178,-0.102 h -3.8694 c -0.3918,0 -0.7128,0.3204 -0.7128,0.7128 v 2.9862 c 0,0.3918 0.3204,0.7128 0.7128,0.7128 l 3.8694,-6e-4 c 0.393,-0.0012 1.0206,0.0522 1.2492,0.1278 z m 14.9118,0.3648 c 0.2046,-0.1254 0.5592,-0.2898 0.7878,-0.3648 0.2286,-0.075 0.8562,-0.129 1.2486,-0.129 h 2.373 c 0.3918,0 0.7128,0.3204 0.7128,0.7128 v 1.0998 c 0,0.3918 0.279,0.5544 0.6198,0.3612 l 7.0968,-4.0272 c 0.3408,-0.1932 0.3408,-0.51 0,-0.7032 l -7.0974,-4.0254 c -0.3408,-0.1932 -0.6198,-0.0312 -0.6198,0.3612 v 1.098 c 0,0.3918 -0.3204,0.7128 -0.7128,0.7128 h -2.373 c -0.3918,0 -1.0296,0.0462 -1.4178,0.102 0,0 -1.2804,0.1854 -2.1624,0.5856 -0.873,0.4128 -1.8294,1.2636 -1.8294,1.2636 -0.2928,0.2604 -0.738,0.7194 -0.99,1.0194 l -8.8632,10.5738 c -0.2514,0.3 -0.552,0.6312 -0.6678,0.7356 -0.1152,0.1038 -0.789,0.4254 -1.0176,0.501 -0.228,0.075 -0.8562,0.1278 -1.2486,0.1278 h -3.8694 c -0.3918,0 -0.7128,0.3204 -0.7128,0.7128 v 2.9862 c 0,0.3918 0.3204,0.7128 0.7128,0.7128 h 3.8694 c 0.3918,0 1.0296,-0.0462 1.4178,-0.102 0,0 1.2816,-0.186 2.1612,-0.5856 0.8742,-0.4134 1.8306,-1.2636 1.8306,-1.2636 0.2928,-0.2604 0.738,-0.7194 0.99,-1.0194 l 8.8626,-10.5738 c 0.252,-0.3018 0.6942,-0.747 0.8988,-0.8724 z m 5.1216,9.2922 c 0,0.3918 -0.3204,0.7128 -0.7128,0.7128 h -2.373 c -0.3918,0 -0.8394,-0.0174 -0.9948,-0.039 -0.1554,-0.0216 -0.837,-0.3288 -1.041,-0.4542 -0.204,-0.1254 -0.6474,-0.5712 -0.8988,-0.8712 l -2.1066,-2.5128 c -0.2514,-0.3 -0.6636,-0.3 -0.915,0 l -1.992,2.3766 c -0.2514,0.3 -0.2514,0.792 0,1.092 l 1.5492,1.848 c 0.2514,0.3 0.6972,0.759 0.99,1.0194 0,0 0.9564,0.8502 1.8294,1.2636 0.8814,0.3996 2.1624,0.585 2.1624,0.585 0.3876,0.0558 1.0254,0.102 1.4178,0.102 h 2.373 c 0.3918,0 0.7128,0.3204 0.7128,0.7128 v 1.0986 c 0,0.3918 0.279,0.5544 0.6198,0.3612 l 7.0968,-4.0254 c 0.3408,-0.1932 0.3408,-0.51 0,-0.7032 l -7.0968,-4.0266 c -0.3408,-0.1932 -0.6198,-0.0312 -0.6198,0.3612 v 1.0992 z"
       style="fill:#fef8fb" />
    <path
       id="path32"
       d="m 199.24299,86.140649 c 0.3012,-0.201 0.2922,-0.5148 -0.021,-0.6972 l -6.768,-3.948 c -0.3126,-0.1824 -0.5688,-0.0354 -0.5688,0.327 v 1.317 c 0,0.3624 -0.2958,0.636 -0.657,0.6078 0,0 -7.8096,-0.6078 -9.7866,1.3692 -1.9758,1.977 -2.427,17.788801 -0.4512,19.765201 1.977,1.9758 27.6714,1.9758 29.6472,0 1.9782,-1.977 1.9782,-17.729401 0,-19.706401 -1.9758,-1.977 -11.3832,-1.4718 -11.3832,-1.4718 -0.3618,0.0198 -0.4044,0.189 -0.0948,0.3774 l 2.2266,1.3524 c 0.3096,0.1878 0.3162,0.5064 0.015,0.7074 l -2.8566,1.9044 c -0.3012,0.201 -0.2532,0.336 0.1074,0.2994 0,0 7.3896,-0.7428 8.6328,0.7836 1.176,1.4454 0.7182,10.482002 -0.6,11.800201 -1.3182,1.317 -20.4228,1.3176 -21.741,0 -1.3182,-1.316999 -1.3182,-10.541401 0,-11.859001 1.3182,-1.3164 6.2868,-0.735 6.2868,-0.735 0.36,0.042 0.654,0.3732 0.654,0.7356 v 1.317 c 0,0.3624 0.2466,0.4944 0.5484,0.2934 l 6.81,-4.5396 z"
       style="fill:#88fc17;fill-opacity:1" />
    <g
       id="g36"
       transform="matrix(0.6,0,0,0.6,266.042,212.60205)">
      <path
         style="fill:#ffffff"
         d="m -4.665,-210.769 c 0.502,-0.335 0.487,-0.858 -0.035,-1.162 l -11.28,-6.58 c -0.521,-0.304 -0.948,-0.059 -0.948,0.545 v 2.195 c 0,0.604 -0.493,1.06 -1.095,1.013 0,0 -13.016,-1.013 -16.311,2.282 -3.293,3.295 -4.045,29.648 -0.752,32.942 3.295,3.293 46.119,3.293 49.412,0 3.297,-3.295 3.297,-29.549 0,-32.844 -3.293,-3.295 -18.972,-2.453 -18.972,-2.453 -0.603,0.033 -0.674,0.315 -0.158,0.629 l 3.711,2.254 c 0.516,0.313 0.527,0.844 0.025,1.179 l -4.761,3.174 c -0.502,0.335 -0.422,0.56 0.179,0.499 0,0 12.316,-1.238 14.388,1.306 1.961,2.409 1.197,17.47 -1,19.667 -2.197,2.195 -34.038,2.196 -36.235,0 -2.197,-2.195 -2.197,-17.569 0,-19.765 2.197,-2.194 10.478,-1.225 10.478,-1.225 0.6,0.07 1.09,0.622 1.09,1.226 v 2.195 c 0,0.604 0.411,0.824 0.914,0.489 l 11.35,-7.566 z"
         id="path38" />
    </g>
    <path
       id="path43"
       d="m 208.84959,170.67522 c 0,0.9636 -0.7884,1.752 -1.752,1.752 h -20.946 c -0.9636,0 -1.752,-0.7884 -1.752,-1.752 v -20.946 c 0,-0.9636 0.7884,-1.752 1.752,-1.752 h 20.946 c 0.9636,0 1.752,0.7884 1.752,1.752 v 20.946 z"
       style="fill:#88fc17;fill-opacity:1" />
    <g
       id="stop"
       transform="matrix(0.6,0,0,0.6,266.92459,239.12682)">
      <path
         style="fill:#ffffff"
         d="m 9.875,-114.086 c 0,1.606 -1.314,2.92 -2.92,2.92 h -34.91 c -1.606,0 -2.92,-1.314 -2.92,-2.92 v -34.91 c 0,-1.606 1.314,-2.92 2.92,-2.92 h 34.91 c 1.605,0 2.92,1.314 2.92,2.92 v 34.91 z"
         id="path48" />
    </g>
    <g
       id="play"
       transform="matrix(0.6,0,0,0.6,266.10929,264.74331)">
      <path
         style="fill:#ffffff"
         d="m -20.655,-46.703 c -1.358,0.937 -2.47,0.353 -2.47,-1.297 v -39 c 0,-1.65 1.111,-2.233 2.47,-1.297 L 7.03,-69.203 c 1.358,0.937 1.358,2.47 0,3.406 l -27.685,19.094 z"
         id="path53" />
    </g>
    <g
       id="pause"
       transform="matrix(0.6,0,0,0.6,266.95219,290.34301)">
      <g
         id="g58">
        <path
           style="fill:#ffffff"
           d="m -8.25,18.58 c 0,1.605 1.314,2.92 2.92,2.92 H 6.83 c 1.605,0 2.92,-1.314 2.92,-2.92 v -44.161 c 0,-1.606 -1.314,-2.92 -2.92,-2.92 H -5.33 c -1.606,0 -2.92,1.314 -2.92,2.92 V 18.58 z"
           id="path60" />
      </g>
      <g
         id="g62">
        <path
           style="fill:#ffffff"
           d="m -30.612,18.58 c 0,1.605 1.314,2.92 2.92,2.92 h 12.16 c 1.606,0 2.92,-1.314 2.92,-2.92 v -44.161 c 0,-1.606 -1.314,-2.92 -2.92,-2.92 h -12.16 c -1.606,0 -2.92,1.314 -2.92,2.92 V 18.58 z"
           id="path64" />
      </g>
    </g>
    <g
       id="g3002"
       transform="matrix(0.6,0,0,0.6,78.577435,140.89729)">
      <path
         id="path71"
         d="m 220.15459,373.04022 c 1.358,0.937 2.47,0.354 2.47,-1.297 v -39 c 0,-1.65 -1.111,-2.233 -2.47,-1.297 l -27.686,19.094 c -1.358,0.937 -1.358,2.47 0,3.406 l 27.686,19.094 z"
         style="fill:#88fc17;fill-opacity:1" />
      <path
         id="path75"
         d="m 170.26259,374.24322 c 0,1.65 1.35,3 3,3 h 13 c 1.65,0 3,-1.35 3,-3 v -44 c 0,-1.65 -1.35,-3 -3,-3 h -13 c -1.65,0 -3,1.35 -3,3 v 44 z"
         style="fill:#88fc17;fill-opacity:1" />
    </g>
    <g
       id="previous"
       transform="matrix(0.6,0,0,0.6,266.85219,315.94322)">
      <g
         id="g80">
        <path
           style="fill:#ffffff"
           d="M 13.03,81.297 C 14.389,82.233 15.5,81.65 15.5,80 V 41 c 0,-1.65 -1.111,-2.233 -2.47,-1.297 l -27.686,19.094 c -1.358,0.937 -1.358,2.47 0,3.406 L 13.03,81.297 z"
           id="path82" />
      </g>
      <g
         id="g84">
        <path
           style="fill:#ffffff"
           d="m -36.862,82.5 c 0,1.649 1.35,3 3,3 h 13 c 1.65,0 3,-1.351 3,-3 v -44 c 0,-1.65 -1.35,-3 -3,-3 h -13 c -1.65,0 -3,1.35 -3,3 v 44 z"
           id="path86" />
      </g>
    </g>
    <g
       id="g3006"
       transform="matrix(0.6,0,0,0.6,78.577235,166.49729)">
      <path
         id="path93"
         d="m 172.73159,437.04022 c -1.358,0.937 -2.47,0.354 -2.47,-1.297 v -39 c 0,-1.65 1.111,-2.233 2.47,-1.297 l 27.686,19.094 c 1.358,0.937 1.358,2.47 0,3.406 l -27.686,19.094 z"
         style="fill:#88fc17;fill-opacity:1" />
      <path
         id="path97"
         d="m 222.62459,438.24322 c 0,1.65 -1.35,3 -3,3 h -13 c -1.65,0 -3,-1.35 -3,-3 v -44 c 0,-1.65 1.35,-3 3,-3 h 13 c 1.65,0 3,1.35 3,3 v 44 z"
         style="fill:#88fc17;fill-opacity:1" />
    </g>
    <g
       id="next"
       transform="matrix(0.6,0,0,0.6,266.85199,341.54322)">
      <g
         id="g102">
        <path
           style="fill:#ffffff"
           d="m -34.393,145.297 c -1.358,0.937 -2.47,0.354 -2.47,-1.297 v -39 c 0,-1.65 1.111,-2.233 2.47,-1.297 l 27.686,19.094 c 1.358,0.937 1.358,2.47 0,3.406 l -27.686,19.094 z"
           id="path104" />
      </g>
      <g
         id="g106">
        <path
           style="fill:#ffffff"
           d="m 15.5,146.5 c 0,1.649 -1.35,3 -3,3 h -13 c -1.65,0 -3,-1.351 -3,-3 v -44 c 0,-1.65 1.35,-3 3,-3 h 13 c 1.65,0 3,1.35 3,3 v 44 z"
           id="path108" />
      </g>
    </g>
    <path
       style="fill:url(#linearGradient3783)"
       d="m 164,154 c 0,5.5 -4.5,10 -10,10 H 10 C 4.5,164 0,159.5 0,154 V 10 C 0,4.5 4.5,0 10,0 h 144 c 5.5,0 10,4.5 10,10 v 144 z"
       id="path119" />
    <g
       transform="matrix(0.512,0,0,0.512,328.44592,251.80333)"
       id="g2985">
      <path
         id="path2987"
         d="m -20.655,-46.703 c -1.358,0.937 -2.47,0.353 -2.47,-1.297 v -39 c 0,-1.65 1.111,-2.233 2.47,-1.297 L 7.03,-69.203 c 1.358,0.937 1.358,2.47 0,3.406 l -27.685,19.094 z"
         style="fill:#ffffff" />
    </g>
    <g
       transform="matrix(0.512,0,0,0.512,329.03426,283.03498)"
       id="g2989">
      <g
         id="g2991">
        <path
           id="path2993"
           d="m -8.25,18.58 c 0,1.605 1.314,2.92 2.92,2.92 H 6.83 c 1.605,0 2.92,-1.314 2.92,-2.92 v -44.161 c 0,-1.606 -1.314,-2.92 -2.92,-2.92 H -5.33 c -1.606,0 -2.92,1.314 -2.92,2.92 V 18.58 z"
           style="fill:#ffffff" />
      </g>
      <g
         id="g2995">
        <path
           id="path2997"
           d="m -30.612,18.58 c 0,1.605 1.314,2.92 2.92,2.92 h 12.16 c 1.606,0 2.92,-1.314 2.92,-2.92 v -44.161 c 0,-1.606 -1.314,-2.92 -2.92,-2.92 h -12.16 c -1.606,0 -2.92,1.314 -2.92,2.92 V 18.58 z"
           style="fill:#ffffff" />
      </g>
    </g>
    <g
       transform="matrix(0.512,0,0,0.512,328.91226,314.26722)"
       id="g2999">
      <g
         id="g3001">
        <path
           id="path3003"
           d="M 13.03,81.297 C 14.389,82.233 15.5,81.65 15.5,80 V 41 c 0,-1.65 -1.111,-2.233 -2.47,-1.297 l -27.686,19.094 c -1.358,0.937 -1.358,2.47 0,3.406 L 13.03,81.297 z"
           style="fill:#ffffff" />
      </g>
      <g
         id="g3005">
        <path
           id="path3007"
           d="m -36.862,82.5 c 0,1.649 1.35,3 3,3 h 13 c 1.65,0 3,-1.351 3,-3 v -44 c 0,-1.65 -1.35,-3 -3,-3 h -13 c -1.65,0 -3,1.35 -3,3 v 44 z"
           style="fill:#ffffff" />
      </g>
    </g>
    <g
       transform="matrix(0.512,0,0,0.512,328.91202,345.49922)"
       id="g3009">
      <g
         id="g3011">
        <path
           id="path3013"
           d="m -34.393,145.297 c -1.358,0.937 -2.47,0.354 -2.47,-1.297 v -39 c 0,-1.65 1.111,-2.233 2.47,-1.297 l 27.686,19.094 c 1.358,0.937 1.358,2.47 0,3.406 l -27.686,19.094 z"
           style="fill:#ffffff" />
      </g>
      <g
         id="g3015">
        <path
           id="path3017"
           d="m 15.5,146.5 c 0,1.649 -1.35,3 -3,3 h -13 c -1.65,0 -3,-1.351 -3,-3 v -44 c 0,-1.65 1.35,-3 3,-3 h 13 c 1.65,0 3,1.35 3,3 v 44 z"
           style="fill:#ffffff" />
      </g>
    </g>
    <g
       transform="matrix(0.6,0,0,0.6,330.88634,232.12682)"
       id="g7233">
      <path
         id="path7235"
         d="m 9.875,-114.086 c 0,1.606 -1.314,2.92 -2.92,2.92 h -34.91 c -1.606,0 -2.92,-1.314 -2.92,-2.92 v -34.91 c 0,-1.606 1.314,-2.92 2.92,-2.92 h 34.91 c 1.605,0 2.92,1.314 2.92,2.92 v 34.91 z"
         style="fill:#ffffff" />
    </g>
  </g>
  <g
     inkscape:groupmode="layer"
     id="layer2"
     inkscape:label="coordinates"
     style="display:none"
     sodipodi:insensitive="true">
    <image
       sodipodi:absref="/scratchbox/users/danielb/home/danielb/Repository/themes/melody/applications/mediaplayer/coordinates.png"
       xlink:href="coordinates.png"
       width="400"
       height="600"
       id="image3692"
       x="0"
       y="0" />
  </g>
  <rect
     style="opacity:0.8755556;color:#000000;fill:url(#linearGradient8329-5);fill-opacity:1;fill-rule:nonzero;stroke:none;stroke-width:1;marker:none;visibility:visible;display:inline;overflow:visible;enable-background:accumulate"
     id="rect3900"
     width="29"
     height="21"
     x="636"
     y="190" />
</svg>
